<?xml version="1.0" encoding="UTF-8"?>
<svg id="_레이어_1" data-name="레이어_1" xmlns="http://www.w3.org/2000/svg" xmlns:ev="http://www.w3.org/2001/xml-events" baseProfile="tiny" version="1.2" viewBox="0 0 215.26 148">
  <!-- Generator: Adobe Illustrator 29.6.1, SVG Export Plug-In . SVG Version: 2.1.1 Build 9)  -->
  <path d="M178.31,34.81c3.83-1.21,5.23-3.14,4.69-7.2-.2-1.47-6.27-17.11-7.21-18.85-.82-1.52-1.8-2.86-3.47-3.53l-107.76-.18c-2.19.32-3.24,1.97-4.27,3.73-1.44,2.48-7.57,19.61-7.28,21.69.33,2.39,3.07,4.67,5.47,4.61l119.84-.27ZM176.02,29.03H59.02s7.64-18.86,7.64-18.86l103.48.45,5.89,18.41Z"/>
  <path d="M50.03,56.03l-2.59,11.02c-10.73-1.9-15.79-10.31-24.92-17.02H5.02c21.29,7.48,11.8,45.53,35.73,54.77,2.78,1.07,9.18,1.75,10.77,3.23,1.11,1.03,4.3,8.36,6.09,10.91,2.14,3.04,10.57,10.38,10.92,11.08,1.88,3.82-1.86,13.33,3.19,14.81l93.31-.29c3.92-3.63.59-10.67,2.48-14.52.46-.93,5.39-4.14,7.02-5.98,16.04-18.08,18.54-45.79,10.49-68h0c1.68-6.33,4.46-5.36.94-6.45-10.3-3.19-12.06-7.54-25.2-5.33-4.39.74-8.43,4.43-12.68,5.32-12.89,2.7-15.7-4.43-25.56-5.56-15.22-1.75-20.95,8.57-35.56,5.56-4.26-.88-8.55-4.88-12.5-5.5-13.96-2.18-9.97,2.6-22.79,4.25M75.02,132.03h86v7h-86v-7ZM56.31,57.81c1.85-5.53,1.62-7.07,8.22-7.78,13.84-1.49,19.17,8.4,34.76,5.76,5.08-.86,9.06-5.14,14.21-5.78,14.21-1.78,20.28,8.76,35.58,5.58,4.52-.94,8.57-4.78,13.53-5.47,3.54-.49,12.7-.51,15.15,2.17,1.61,1.75,4.84,15.37,5.14,18.37,2.14,21.33-1.5,41.1-18.9,54.86l-90.46.5c-21.74-14.37-25.02-44.94-17.24-68.19Z"/>
</svg>