<?xml version="1.0" encoding="UTF-8"?>
<svg id="_레이어_1" data-name="레이어_1" xmlns="http://www.w3.org/2000/svg" baseProfile="tiny" version="1.2" viewBox="0 0 894.78 896.73">
  <!-- Generator: Adobe Illustrator 29.8.0, SVG Export Plug-In . SVG Version: 2.1.1 Build 160)  -->
  <g id="XIzEE7">
    <g>
      <path d="M107.54.34C49.34,7.26,4.41,55.06.75,113.55l-.05,667.03c4.15,59.98,52.28,110.01,112.5,114.5h669.08c59.67-4.07,107.19-53.49,112.5-112.5V109.5c-5.15-57.09-51.35-104-108.5-109.5L107.54.34Z" fill="#fff"/>
      <path d="M107.54.34l678.74-.34c57.15,5.5,103.35,52.41,108.5,109.5v673.08c-5.31,59.01-52.83,108.43-112.5,112.5H113.2c-60.22-4.49-108.35-54.52-112.5-114.5l.05-667.03C4.41,55.06,49.34,7.26,107.54.34ZM112.54,25.34c-44.61,4.61-80.45,39.63-85.78,84.22l-.05,674.02c5.25,43.93,40.96,81.22,85.49,85.51h673.08c44.08-4.76,79.02-41.76,83.51-85.5V108.51c-5.21-44.53-41.97-79.55-86.51-83.51l-669.74.34Z"/>
      <path d="M112.54,25.34l669.74-.34c44.54,3.95,81.3,38.98,86.49,83.51v675.08c-4.47,43.74-39.42,80.74-83.5,85.49H112.2c-44.53-4.28-80.25-41.57-85.49-85.5l.05-674.02c5.33-44.59,41.18-79.6,85.78-84.22ZM450.74,599.04c9.06-8.1,19.04-15.2,26.97-24.53,33.83-39.8,40.51-102.57,31.55-152.49-.68-3.81-4.75-16.46-4.54-18.45.36-3.5,8.27-6.78,6.62-15.55-3.26-13.08-17.6-30.88-20.19-42.96-.53-2.47,3.68-8.14,2.35-15.28-.97-5.24-5.17-7.15-6.51-10.49-1.13-2.82-.83-7.22-1.73-10.27-7.73-26.16-30.03-43.28-54.17-53.83-61.59-26.91-214.3-24.54-234.1,57.61-.57,2.36.26,4.94-.76,7.24-.79,1.77-4.16,3.7-5.68,7.31-4.4,10.45,2.75,13.11,2.02,17.95-1.4,9.35-15.33,28.58-19.01,39.05-3.17,9.04-.65,12.9,5.9,19.18l-7.72,27.52c-1.23,1.25-6.74-3.44-8.01-4.49-17.58-14.61-32.46-35.58-43.51-55.49-3.09-5.57-5.14-12.15-8.98-17.02h-48.5c-.16,1.44-.88,2.16-.28,3.7,1.46,3.74,12.37,15.35,15.7,20.38,27.11,41.02,20.35,79.5,32.66,123.34,10.6,37.74,37.66,60.58,77.93,59.07,10.1,15.35,22.15,28.2,36.99,39.01-25.7,2.48-51.77,2.7-77.33,6.66-4.74.73-20.01,2.73-22.22,6.83-1.75,5.13,6.02,6.38,9.73,7.33,29.45,7.56,73.19,7.09,104.31,8.69,148.04,7.59,299.78,7.45,447.97.95,33.81-1.48,69.32-1.87,102.92-6.08,4.5-.56,29.6-3.81,29.61-8.38-5.99-5.91-15.42-5.38-22.98-8,27.67-17.97,29.98-57.36,3.01-77,19.24-13.69,25.77-42.49,10.98-62-1.72-2.27-9.01-7.8-9.01-9.99,25.6-16.74,21.65-57.41-6.29-69.71-2.6-1.14-10.8-3.81-13.19-3.81h-49.5l20.05-14.45c15.27-15.28,14.19-39.27-9.01-45.08-16.69-4.18-38.11,3.78-52.16,12.9-7.41,4.81-13.37,11.33-20.36,16.64-14.97-20.38-61.73-42.75-83.52-23.52-15.88,14.01-3.59,33.98,9.53,44.49,4.27,3.42,9.6,5.33,13.48,9.02h-53.5c-3.13,0-11.46,3.77-14.52,5.48-24.39,13.68-25.74,53.85-.99,67.54.9,1.3-5.54,5.85-6.96,7.51-17.65,20.65-12.86,47.85,6.95,64.97-17.76,14.37-23.72,38.82-12.15,59.17,1.93,3.4,4.94,5.82,6.17,9.33h-86Z" fill="#fff"/>
      <path d="M450.74,599.04h86c-1.23-3.51-4.23-5.93-6.17-9.33-11.57-20.35-5.61-44.8,12.15-59.17-19.81-17.11-24.6-44.31-6.95-64.97,1.42-1.67,7.86-6.22,6.96-7.51-24.76-13.68-23.4-53.85.99-67.54,3.05-1.71,11.39-5.48,14.52-5.48h53.5c-3.88-3.69-9.21-5.6-13.48-9.02-13.12-10.51-25.41-30.48-9.53-44.49,21.8-19.23,68.55,3.14,83.52,23.52,6.98-5.31,12.95-11.83,20.36-16.64,14.06-9.12,35.47-17.08,52.16-12.9,23.2,5.81,24.29,29.8,9.01,45.08l-20.05,14.45h49.5c2.39,0,10.6,2.67,13.19,3.81,27.94,12.3,31.89,52.96,6.29,69.71,0,2.19,7.29,7.72,9.01,9.99,14.79,19.51,8.26,48.31-10.98,62,26.96,19.65,24.65,59.03-3.01,77,7.55,2.61,16.98,2.08,22.98,8,0,4.56-25.11,7.81-29.61,8.38-33.6,4.21-69.11,4.6-102.92,6.08-148.19,6.5-299.93,6.64-447.97-.95-31.12-1.6-74.87-1.13-104.31-8.69-3.71-.95-11.48-2.2-9.73-7.33,2.2-4.1,17.48-6.09,22.22-6.83,25.56-3.96,51.63-4.18,77.33-6.66-14.84-10.81-26.89-23.66-36.99-39.01-40.26,1.51-67.32-21.33-77.93-59.07-12.32-43.84-5.56-82.31-32.66-123.34-3.33-5.04-14.24-16.64-15.7-20.38-.6-1.55.12-2.26.28-3.7h48.5c3.84,4.87,5.89,11.46,8.98,17.02,11.05,19.91,25.93,40.88,43.51,55.49,1.27,1.05,6.78,5.74,8.01,4.49l7.72-27.52c-6.55-6.28-9.08-10.13-5.9-19.18,3.68-10.48,17.61-29.7,19.01-39.05.72-4.85-6.42-7.5-2.02-17.95,1.52-3.61,4.9-5.54,5.68-7.31,1.02-2.3.2-4.87.76-7.24,19.81-82.15,172.52-84.52,234.1-57.61,24.15,10.55,46.44,27.66,54.17,53.83.9,3.05.6,7.45,1.73,10.27,1.34,3.34,5.53,5.25,6.51,10.49,1.33,7.14-2.88,12.81-2.35,15.28,2.59,12.08,16.93,29.89,20.19,42.96,1.65,8.77-6.26,12.05-6.62,15.55-.21,2,3.86,14.65,4.54,18.45,8.96,49.92,2.28,112.7-31.55,152.49-7.93,9.33-17.91,16.43-26.97,24.53ZM465.74,316.04c-3.76-19.24-23.46-33.35-40.33-41.17-48.99-22.74-160.84-22.62-198.19,22.16-4.41,5.29-8.6,12.08-9.49,19.01h248ZM469.75,338.03l-254.37.15c-2.06.68-2.14,9.08-2.94,12.06-.55,2.06-1.27,4.03-1.96,6.04-4.14,12.13-13.62,22.86-13.75,35.76,11.97,2.81,18.79-7.32,28.56-9.94,22.19-5.96,31.76,12.87,52.93,10.93,13.65-1.25,20.32-12.82,37.06-12.02,11.6.55,18.11,8.32,28.01,10.98,24.79,6.67,31.04-11.99,51.99-10.98,17.87.86,31.87,21.07,51.67,10.02,1.25-.7,2.95-4.1,5.45-5.81,9.18-6.25,23.38-4.92,33.32-1.17-5.13-15.42-16.51-28.98-15.98-46.01ZM660.74,372.03c-6.59-10.22-19.01-19.58-30.32-24.17-5.46-2.21-24.95-7.89-27.98-1.54-.96,1.79-.1,3.33.51,4.98,6.2,16.76,41.87,24.48,57.79,20.73ZM685.74,372.03c14.67,4.3,54.42-4.67,57.81-21.74.61-3.07.04-5.59-3.34-6.23-19.02-3.58-44.66,12.18-54.47,27.96ZM645.74,404.04h-84.5c-4.2,0-11.48,6.81-13.33,10.67-6.57,13.69.53,30.13,16.29,31.38,22.66,1.78,47.64-1.42,70.55-.04.12-14.64,5.3-28.72,11-42.01ZM781.24,404.04h-80.5c6.68,13.13,9.05,27.71,11.58,42.06l70.94-.04c22.56-4.37,20.37-39-2.02-42.02ZM664.74,446.04v-39c-5.6,2.94-14.98,37-13,39h13ZM681.74,407.04v39c3.62-.38,8.06.53,11.53,0,1.56-.23,1.52.61,1.5-1.51-.08-10.32-6.89-29.17-13.04-37.5ZM230.41,429.38c-6.26-5.97-16.72-3.07-18.43,5.39-2.02,9.97-.16,26.12-1.17,36.71,2.5,9.67,14.55,11.5,19.79,2.91,3.72-6.1,1.96-21.2,2.11-28.89.11-5.76,3.27-10.81-2.3-16.12ZM664.74,468.04h-96.5c-14.56,0-24.41,17.88-22.26,31.26,1.1,6.82,11.21,19.74,18.26,19.74h100.5v-51ZM681.74,519.04h99.5c.41,0,6.34-3.14,7.24-3.76,15.23-10.38,13.79-36.73-3.07-44.42-1.51-.69-8.02-2.83-9.17-2.83h-94.5v51ZM664.74,542.04h-101.5c-.73,0-7.8,4.06-8.98,5.02-10.29,8.48-11.31,25.08-3.52,35.47,1.98,2.64,10.47,9.5,13.5,9.5h100.5v-50ZM681.74,592.04h98.5c.61,0,7.76-3.45,8.83-4.17,14.67-9.84,13.09-34.76-2.65-43.02-1.01-.53-5.72-2.81-6.19-2.81h-98.5v50Z"/>
      <path d="M469.75,338.03c-.52,17.02,10.86,30.58,15.98,46.01-9.94-3.74-24.14-5.08-33.32,1.17-2.5,1.7-4.21,5.11-5.45,5.81-19.8,11.06-33.81-9.16-51.67-10.02-20.94-1.01-27.2,17.65-51.99,10.98-9.91-2.66-16.41-10.43-28.01-10.98-16.74-.8-23.41,10.77-37.06,12.02-21.17,1.94-30.75-16.88-52.93-10.93-9.77,2.62-16.6,12.75-28.56,9.94.13-12.9,9.61-23.63,13.75-35.76.69-2.01,1.4-3.98,1.96-6.04.8-2.98.87-11.38,2.94-12.06l254.37-.15Z" fill="#fff"/>
      <path d="M465.74,316.04h-248c.89-6.93,5.07-13.72,9.49-19.01,37.35-44.78,149.19-44.9,198.19-22.16,16.87,7.83,36.56,21.93,40.33,41.17Z" fill="#fff"/>
      <path d="M664.74,468.04v51h-100.5c-7.04,0-17.16-12.92-18.26-19.74-2.15-13.38,7.69-31.26,22.26-31.26h96.5Z" fill="#fff"/>
      <path d="M681.74,519.04v-51h94.5c1.15,0,7.66,2.14,9.17,2.83,16.86,7.69,18.3,34.04,3.07,44.42-.9.62-6.84,3.76-7.24,3.76h-99.5Z" fill="#fff"/>
      <path d="M664.74,542.04v50h-100.5c-3.03,0-11.52-6.87-13.5-9.5-7.79-10.4-6.77-27,3.52-35.47,1.17-.97,8.24-5.02,8.98-5.02h101.5Z" fill="#fff"/>
      <path d="M681.74,592.04v-50h98.5c.46,0,5.18,2.29,6.19,2.81,15.74,8.26,17.32,33.17,2.65,43.02-1.07.72-8.22,4.17-8.83,4.17h-98.5Z" fill="#fff"/>
      <path d="M645.74,404.04c-5.69,13.28-10.87,27.37-11,42.01-22.9-1.38-47.89,1.82-70.55.04-15.77-1.24-22.86-17.69-16.29-31.38,1.85-3.85,9.13-10.67,13.33-10.67h84.5Z" fill="#fff"/>
      <path d="M781.24,404.04c22.39,3.02,24.58,37.66,2.02,42.02l-70.94.04c-2.53-14.35-4.9-28.93-11.58-42.06h80.5Z" fill="#fff"/>
      <path d="M230.41,429.38c5.57,5.31,2.41,10.36,2.3,16.12-.15,7.69,1.61,22.79-2.11,28.89-5.24,8.6-17.29,6.76-19.79-2.91,1.01-10.59-.85-26.75,1.17-36.71,1.71-8.46,12.18-11.36,18.43-5.39Z" fill="#fff"/>
      <path d="M660.74,372.03c-15.92,3.75-51.6-3.97-57.79-20.73-.61-1.65-1.46-3.19-.51-4.98,3.03-6.35,22.52-.67,27.98,1.54,11.31,4.59,23.72,13.95,30.32,24.17Z" fill="#fff"/>
      <path d="M685.74,372.03c9.81-15.78,35.45-31.54,54.47-27.96,3.38.64,3.95,3.15,3.34,6.23-3.39,17.06-43.14,26.03-57.81,21.74Z" fill="#fff"/>
      <path d="M664.74,446.04h-13c-1.97-2,7.41-36.06,13-39v39Z" fill="#fff"/>
      <path d="M681.74,407.04c6.15,8.32,12.95,27.18,13.04,37.5.02,2.12.06,1.28-1.5,1.51-3.47.52-7.91-.38-11.53,0v-39Z" fill="#fff"/>
    </g>
  </g>
</svg>