<?xml version="1.0" encoding="UTF-8"?>
<svg id="_레이어_1" data-name="레이어_1" xmlns="http://www.w3.org/2000/svg" baseProfile="tiny" version="1.2" viewBox="0 0 1080 1080">
  <!-- Generator: Adobe Illustrator 29.8.0, SVG Export Plug-In . SVG Version: 2.1.1 Build 160)  -->
  <g id="SzJ8vg">
    <g>
      <path d="M198.29,650.39c-15.92-19.77-36.96-36.55-52.9-56.04-15.26-18.65-28.07-43.83-33.06-66.93-6.54-30.27-4.28-63.52,4.29-92.15.51-1.7,3.62-10.5,4.25-11.02.83-.69,2.8-.02,3.07-.24.3-.26-.84-2.61-.74-3.75,1.42-16.06,26.85-46.77,39.01-57.64,62.18-55.58,155.45-58.88,217.76-4.29,38.04,33.32,72.13,73.29,109.46,107.32l47.22,48.53c1.65,2.42,6.68-1.26,8.56-2.8,28-22.77,58.48-59.57,84.81-85.84,49.58-49.46,92.96-106.46,170.29-106.32,56.1.1,96.05,19.38,130.67,60.8,16.34,19.54,35.4,49.76,34.44,76.15-.02.6,1.87.35,2.08,1.25,8.99,38.82-4.92,91.1-27.21,123.52-19.07,27.74-46.53,48.07-67.39,73.96-7.92,3.2-20.89,19.65-27.03,27.03-15.89,11.74-32.83,29.71-45.05,45.05-7.66,6.45-14.47,11.96-21.36,19.76-2,2.27-5.26,2.18-4.57,5.5.32,1.55,3.34,5.53,4.54,6.83,9.05,9.85,24.35,20.38,30.65,32.44,3.52,6.74,1.58,2.78,5.27,7.09,12.58,14.68,22.4,53.94,23.53,73.12.43,7.29-1.39,13.17-2.01,19.19-.26,2.49,1.86,5.5,1.1,8.76-.21.92-2.3.37-2.37,2.42-.1,2.82,1.92,6.21,1.28,8.86-.21.85-2.2.66-2.31,1.48-.19,1.45,1.02,3.19.48,5.86-.48,2.41-2.34,2.35-2.91,4.02-.8,2.35.17,4.68-.33,6.31-8.2,26.84-33.38,67.39-57.39,82.28-1.66,1.03-4.03.69-4.88,1.28-.63.44-1.03,3.18-2.58,4.75-2.48,2.5-5.92,2.38-8.38,4.01-24.61,16.3-39.89,20.84-68.76,24.73-31.3,4.21-66.1-1.22-93.17-17.64-2.06-1.25-9.96-2.41-12.09-4.29-1.24-1.09-.82-3.34-1.28-3.74-.61-.54-3.59.06-5.44-.75-3.87-1.7-18.35-14.63-22.47-18.13-3.89-3.32-11.13-13.12-16.18-12.62-3.6.35-4.18,5.01-6.93,6.63-6.77,3.98-3.95,3.02-9.06,7.76-47.7,44.22-105.63,50.52-165.19,35.71-5.09-1.27-12.18-5.14-12.89-5.21-11.84-1.22-32.61-15.84-42.65-23.72-20.62-16.18-40.26-41.63-50.36-65.65-16.04-38.16-14.13-89.6,2.76-127.2,7.16-15.95,27.96-46.04,40.64-57.92,1.32-1.23,6.42-1.62,6.41-5.45,0-1.29-9.6-11.53-11.39-13.29-5.87-5.76-11.96-11.9-17.58-17.72-1.65-1.71-3.53-3.06-5.65-5.33-1.78-1.91-1.2-1.79-3.72-.26-.63-.69-1.44-1.33-2.25-2.25,1.56-2.55,1.62-1.94-.27-3.72-3.15-2.98-6.73-5.15-9.87-7.55-10.52-13.36-35.79-40.88-48.77-51.48-1.48-1.21-3.17-.89-4.17-1.45ZM745.66,748.38c.12.01,1.31,1.79,2.14,1.09.21-.17.73-2.28,1.73-3.36,37.49-40.48,80.26-78.81,119.62-118.62,19.31-19.54,39.34-38.86,55.39-61.18,1.39-1.94,4.51-8.85,4.95-9.14,1.17-.78,4.15.28,5.37-1.95l-2.22-3.33c33.59-60.54,15.79-140.2-38.87-181.92-60.34-46.05-130.79-40.94-185.27,7.89-4.48,4.01-21.17,20.9-24.15,22.59-2.2,1.25-3.82,1.28-6.26,1.07-.84,3.55,2.59.97,2.25,4.5-5.87,4.36-6.52,6.14-11.24,10.73-30.46,29.66-60.71,61.95-90.68,90.6-2.52,2.41-6.52,5.17-6.21,9.04-.75.76-1.52,1.5-2.25,2.25-3.28-.85-2.81.76-4.11,2.07-4.53,4.6-20.57,19.83-21.8,22.71-.14.34.17,1.02,0,1.13-.51.32-3.23-.84-2.24,1.68.56,1.44,4,2.66,5.62,2.83,3.09,3.3,6.87,6.83,10.14,10.14.25,5.09,3.2,3.86,4.17,4.77,1.32,1.24.7,6.42,5.97,5.37.33.4.81.71,1.13,1.13-.31,2.67.46,4.57,3.38,4.51,8.12,11.99,23.82,25.5,34.28,36.09,27.86,28.2,56.8,57.69,83.94,84.98,2.77,2.78,5.92,7.5,10.17,7.33.37.38.76.75,1.13,1.13-.5,2.73,2.79,5.53,4.46,7.34,4.43,4.82,9.94,8.89,14.3,13.32,5.94,6.04,11.62,15.98,19.54,18.75.28.38.8.69,1.13,1.13-.35,4.52,0,2.77,2.25,3.38.58.16,1.52-.06,2.25,0ZM376.68,676.72c45.95-46.34,91.31-94.08,138.63-138.99,1.95-1.85,4.46-2.95,6.2-5.04l-155.94-157.15c-142.73-113.15-311.74,76.85-196.02,210.66l148.73,148.62,5.62-4.42c18.01-17.5,35.13-35.88,52.79-53.68ZM529.42,567.05c-1.23-11.32-11.26,2.15-14.59,5.14-6.49,5.83-6.4,6.03-11.31,12.88-.09.12-1.57.2-2.71,1.18-.65.56-.51,2.1-.67,2.2-.56.36-3.39-.28-4.51,0v4.51c-.32.13-.8-.13-1.12,0-4.72,1.98-6.59,1.65-5.63,7.88-.76.81-1.51,1.49-2.25,2.25-2.65-.61-2.99.04-4.79,1.24-4.62,3.08-9.03,10.31-12.6,13.47-1.97,1.74-5.09,2.34-6.19,3.95-1.25,1.84-.91,5.57-1.34,5.98-.75.72-9.05.45-7.74,6.9-.29.15-.82-.15-1.13,0-2.96,1.43-7.2,2.63-4.51,6.76-.36.39-.77.74-1.13,1.13-6.98-.89-9.26,7.82-15.06,10.03l.41,4.61c-1.41,1.31-2.89,2.98-4.51,4.51-42.03,39.73-83.51,79.47-124.44,120.57-35.04,35.19-48.61,77.2-40.86,127.5.21,1.37,1.63,2.67,1.78,3.89.72,5.6.31,6.52,2.82,12.91,12.95,32.97,30.66,58.65,61.24,77.29,62.46,38.07,133.28,28.82,185.64-21.13,7.52-7.18,14.01-15.28,21.35-22.6,6.69-6.68,14.63-12.03,20.91-19.68.93-1.13.85-3.45,1.25-3.78.88-.71,3.41.36,4.23-.3.6-.48-.14-2.56.1-3.24,8.93-7.33,12.99-11.23,20.27-20.27,7.91-5.71,6.19-6.72,10.47-10.93,5.28-5.2,16.19-12.25,21.79-17.65,8.22-7.92,16.17-19.53,25.13-27.25,3.57-3.08,3.17.73,4.56-4.99,4.05-.99,6.41-5.89,10.2-9.54,5.47-5.27,8.22-7.74,12.33-14.11.14-.21,3.47.53,2.25-3.38.75-.78,1.53-1.5,2.25-2.25,2.22-.07,3.11-1.5,4.52-2.79,8.35-7.63,26.29-23.55,32.69-31.52,1.34-1.67,2.65-2.53,2.21-5.11.38-.37.75-.75,1.13-1.13,3.5.45,3.82.12,3.38-3.38,1.11-1.18,2.62-2.5,3.38-3.38,12.84-6.31,11.78-9.61,2.84-19.17-40.23-43.04-86-83.79-127.53-125.32-6.85-6.85-9.48-11.68-18.35-18.82-.17-.22-.36-1.75-1.07-2.83-1.74-2.66-8.84-9.68-12.45-9.56-1.53-1.49-3-3.04-4.51-4.51,1.11-4.13-1.93-3.06-2.25-3.38s.75-3.36-3.38-2.25c-4.16-4.07-8.23-8.38-12.39-12.39.36-3.85-3.08-7.14-6.76-6.76-.98-.94-2.75-2.88-3.38-3.38ZM770.44,983.77c1.75-1.92,4.04-2.65,5.63-5.63,41.69-41,52.88-106.08,24.97-158.43-10.2-19.13-26.43-33.51-42.43-47.66l-198.36,199.31c-.7,1.31-.06,1.86.61,2.87,2.33,3.47,13.76,13.23,17.59,16.27,54.76,43.62,142.79,47.42,192-6.72Z" fill="#111312"/>
      <path d="M599.25,159.33l73.5-.86c9.36,2.47,14.64,7.21,15.52,17.14,1.81,20.46,1.81,60.73,0,81.18-1.09,12.26-10.28,18.21-22.06,18.55-3.84.11-6.73-1.17-10.04-1.19-18.78-.11-37.57.18-56.36.04-1.58.19.56,1.44.56,1.69v70.96c0,10.12-13.38,15.64-21.92,16.37-24.71,2.13-53.59-1.93-78.76-.17-3.62-.43-11.05-3.02-13.67-5.48-1.24-1.17-5.04-8.45-5.04-9.6v-73.77h-74.9c-4.34,0-13.9-9.81-12.95-15.2,1.92-27.16-2.56-57.78-.04-84.52.88-9.39,6.94-15.27,16.37-16.29,22.81-2.47,48.47,2.49,71.52,1.13v-73.77c0-.38,2.6-6.13,3.14-6.99,3.7-5.9,9.83-7.68,16.53-8.25,19.08-1.64,62.44-2.09,81.01.16,5.29.64,10.88,2.96,14.2,7.2.63.8,3.38,5.3,3.38,5.63v76.02ZM573.34,97.39h-65.32v76.02c0,4.17-8.2,8.83-10.7,11.57l-78.31-.4c-1.87,1.37-1.16,26.1-1.14,30.54.02,2.69,1.23,5.17,1.26,7.86.06,6.13-2.6,18.74-1.06,23.48,1.36,4.18,13.57.78,17.25.67,12.48-.37,53.24-1.85,62.54,1.75,3.59,1.39,10.15,7.43,10.15,11.25v76.02h65.32v-77.15c0-1.29,4.18-6.68,5.7-7.81,2.71-2.02,7.42-3.48,10.76-3.89,18.66-2.27,39.8.27,58.45.99,4.68.18,9.4-.1,14.07.01v-64.2c-23.65-1.54-50.25,3.85-73.65,1-6.77-.82-15.33-4.77-15.33-12.83v-74.9Z" fill="#0d0d0e"/>
      <path d="M198.29,650.39c-14.82-8.47-57.52-55.92-67.61-71.49-36.34-56.05-31.98-136.14,5.41-190.62,54.32-79.14,170.46-96.41,244.67-34.68,47.79,49.03,97.64,96.13,145.3,145.28,2.24,2.31,11.27,14.49,13.89,14.03l153.3-154.25c164.32-135.9,373.19,77.74,234.31,243.32-7.14,8.51-48.21,50.32-54.64,52.92-8.18,10.16-16.51,19.26-27.03,27.03-13.39,16.08-29.05,31.58-45.05,45.05-.18.22-.34,1.74-1.07,2.83-2.58,3.88-21.4,19.82-21.41,22.51,51.39,44.67,76.18,107.46,56.56,174.87-26.46,90.92-122.09,141.74-213.16,115.7-31.92-9.13-58.39-29.29-81.66-52.35-21.63,22.01-48.48,41.94-78.26,51.24-129.46,40.4-257.87-75.73-216.28-208.39,7.97-25.42,25.95-51.48,43.91-70.97,2.26-2.45,9.08-6.32,9.08-8.98,0-2.98-6.39-6.34-8.51-8.42-9.33-9.11-17.84-18.66-26.44-28.19,2.52-1.53,1.94-1.65,3.72.26,2.11,2.27,3.99,3.62,5.65,5.33,5.61,5.82,11.7,11.96,17.58,17.72,1.78,1.75,11.38,12,11.39,13.29,0,3.83-5.1,4.21-6.41,5.45-12.68,11.88-33.47,41.97-40.64,57.92-16.89,37.6-18.8,89.03-2.76,127.2,10.09,24.02,29.74,49.47,50.36,65.65,10.04,7.88,30.81,22.5,42.65,23.72.71.07,7.8,3.95,12.89,5.21,59.55,14.81,117.48,8.51,165.19-35.71,5.11-4.74,2.3-3.78,9.06-7.76,2.75-1.62,3.34-6.27,6.93-6.63,5.05-.5,12.29,9.31,16.18,12.62,4.11,3.51,18.6,16.44,22.47,18.13,1.85.81,4.83.21,5.44.75.46.41.04,2.65,1.28,3.74,2.13,1.88,10.02,3.04,12.09,4.29,27.08,16.42,61.87,21.85,93.17,17.64,28.88-3.89,44.16-8.43,68.76-24.73,2.46-1.63,5.9-1.51,8.38-4.01,1.55-1.57,1.95-4.3,2.58-4.75.85-.6,3.22-.25,4.88-1.28,24.01-14.89,49.19-55.44,57.39-82.28.5-1.64-.46-3.97.33-6.31.57-1.68,2.43-1.61,2.91-4.02.53-2.67-.68-4.41-.48-5.86.11-.83,2.11-.63,2.31-1.48.64-2.65-1.38-6.05-1.28-8.86.08-2.05,2.16-1.49,2.37-2.42.76-3.26-1.36-6.26-1.1-8.76.62-6.03,2.44-11.9,2.01-19.19-1.13-19.17-10.95-58.43-23.53-73.12-3.69-4.31-1.75-.35-5.27-7.09-6.31-12.05-21.6-22.59-30.65-32.44-1.2-1.3-4.21-5.28-4.54-6.83-.69-3.32,2.57-3.23,4.57-5.5,6.88-7.8,13.7-13.31,21.36-19.76,12.22-15.34,29.16-33.31,45.05-45.05,6.14-7.38,19.11-23.83,27.03-27.03,20.86-25.89,48.31-46.22,67.39-73.96,22.29-32.41,36.2-84.69,27.21-123.52-.21-.91-2.1-.65-2.08-1.25.96-26.39-18.1-56.61-34.44-76.15-34.62-41.42-74.57-60.7-130.67-60.8-77.33-.14-120.71,56.86-170.29,106.32-26.33,26.27-56.82,63.07-84.81,85.84-1.89,1.53-6.91,5.21-8.56,2.8l-47.22-48.53c-37.32-34.03-71.41-74-109.46-107.32-62.31-54.58-155.58-51.28-217.76,4.29-12.16,10.87-37.59,41.58-39.01,57.64-.1,1.14,1.04,3.49.74,3.75-.27.23-2.24-.45-3.07.24-.63.52-3.75,9.33-4.25,11.02-8.57,28.64-10.83,61.89-4.29,92.15,4.99,23.1,17.8,48.28,33.06,66.93,15.94,19.49,36.97,36.27,52.9,56.04.99.57,2.69.25,4.17,1.45,12.98,10.6,38.25,38.12,48.77,51.48,3.14,2.4,6.71,4.57,9.87,7.55,1.89,1.78,1.83,1.17.27,3.72-3.69-4.19-6.45-6.57-10.14-11.26-17.99-13.77-38.71-35.27-52.94-52.94Z" fill="#0d0d0e"/>
      <path d="M529.42,567.05c.63.5,2.4,2.44,3.38,3.38,1.82,1.74,4.47,4.56,6.76,6.76,4.16,4.01,8.22,8.32,12.39,12.39,1.59,1.55,3.15,2.03,3.38,2.25.16.16.62,1.78,2.25,3.38,1.51,1.47,2.97,3.01,4.51,4.51,5.17,5.04,7.92,7.89,13.52,12.39,10.41,13.09,23.14,24.34,34.94,36.57,33.78,35.01,68.43,69.36,102.46,104.21-5.43,9.5-15.45,16.18-23.12,23.62-59.48,57.76-116.55,120.18-177.34,176.31-36.96,34.12-74.11,56.42-126.78,53.54-40.93-2.24-69.22-21.59-96.78-49.59-.95-.96-1.71-1.97-1.73-3.39-1.24-.73-1.15,3.2-1.11,3.37-34.76-51.55-27.92-120.66,12.94-166.71,8.15-9.19,18.36-16.22,27.08-24.73,32.6-31.81,68.44-65.78,99.1-99.13,1.28-1.39,2.82-2.32,2.79-4.52,1.61-1.53,3.09-3.19,4.51-4.51,5.16-4.81,9.83-9.48,14.64-14.64.36-.39.77-.73,1.13-1.13,1.77-1.95,5.27-2.7,4.51-6.76.31-.15.83.15,1.13,0,9.19-4.78,24.52-23.18,32.66-31.54.75-.77,1.5-1.45,2.25-2.25,2.16-2.31,6.32-3.56,5.63-7.88.32-.13.8.13,1.13,0,5.22-2.06,3.09-3.11,4.51-4.51.9-.89,2.58-2.64,3.38-3.38.26-.24,2.15-.43,3.4-1.61,2.89-2.72,17.54-18.78,19.5-18.51,1.03.65,2.06,1.35,3,2.1Z" fill="#fbf6eb"/>
      <path d="M745.66,748.38c-.73-.06-1.67.16-2.25,0,.41-2.25-1.68-2.62-2.25-3.38-.33-.43-.84-.75-1.13-1.13-10.85-14.51-25.53-26.36-38.29-39.42-.37-.38-.76-.75-1.13-1.13-42.2-43.18-83.84-88.01-128.4-128.4-1.41-2.08-2.05-2.77-3.38-4.51-.32-.42-.8-.72-1.13-1.13-3.87-4.72-6.27-6.22-10.14-10.14-3.27-3.31-7.05-6.84-10.14-10.14-.2-.22-1.46-3.68-3.38-4.51.17-.11-.14-.79,0-1.13,9.33-4.81,17.42-14.36,24.84-21.95.96-.98.89-2.65,1.06-2.82.73-.75,1.5-1.49,2.25-2.25,32.18-32.84,75.03-68.53,103.64-103.03,1.68-2.02,4.22-4.64,4.48-7.35,10.59-7.87,20.62-22.61,28.16-28.16.3-.22,2.52.16,3.95-1.07,133.18-114.56,318.48,67.37,193.18,210.02-47.75,54.37-108.22,103.16-157.17,157.07-1.27,1.4-2.82,2.3-2.79,4.52Z" fill="#399c4a"/>
      <path d="M376.68,676.72c-17.66,17.81-34.78,36.19-52.79,53.68l-5.62,4.42-148.73-148.62c-115.72-133.81,53.28-323.81,196.02-210.66l155.94,157.15c-1.75,2.09-4.25,3.19-6.2,5.04-47.31,44.91-92.68,92.65-138.63,138.99ZM212.6,392.72c-5.94,1.36-24.48,19.74-28.92,25.13-18.14,22.06-26.96,51.32-23.69,79.93,1.38,12.05,13,18.18,23.1,10.71,9.48-7.02,5.26-24.73,6.32-35.35,1.65-16.49,11.95-34.73,23.63-46.2,4.54-4.45,15.9-10.95,17.37-16.41,3.2-11.97-6.02-20.5-17.81-17.81Z" fill="#e9402c"/>
      <path d="M776.07,978.14c.45-.85,3.84-9.1.58-7.87-5.54,2.1-14.19,11.32-19.8,15.12-47.59,32.22-106.37,37.69-157.08,8.55-9.09-5.22-20.12-16.25-28.31-20.12-8.76-4.14-4.64,2.99-.39,7.14,45.9,44.76,117.03,52.44,173.11,21.04,2.71-1.52,5.23-4.86,6.85-5.77,5.05-2.84,7.02-3.83,12.09-7.96,2.81-2.29,2.24-5.82,7.31-4.51-49.2,54.14-137.23,50.34-192,6.72-3.83-3.05-15.26-12.8-17.59-16.27-.67-1-1.31-1.55-.61-2.87l198.36-199.31c15.99,14.14,32.23,28.52,42.43,47.66,27.91,52.36,16.72,117.43-24.97,158.43ZM792.4,954.49v1.13c.73-.38.73-.75,0-1.13ZM782.82,965.76c-1.23-1.23-3.47,1.01-2.24,2.24s3.47-1.01,2.24-2.24Z" fill="#fbf6eb"/>
      <path d="M718.63,775.41c-.76.88-2.27,2.19-3.38,3.38-.98,1.05-2.31,2.3-3.38,3.38-.37.38-.75.75-1.13,1.13-13.23,13.19-26.57,26.06-39.42,39.42-.72.75-1.5,1.47-2.25,2.25-1.52,1.59-1.99,3.11-2.25,3.38-.18.19-2.24.39-3.4,1.61-5.31,5.58-17.51,15.44-19.12,22.04-1.52.37-3.28-.07-4.56,1.61-18.61,20.08-40.38,38.09-57.39,59.2-5.37,3.88-18.13,14.21-20.27,20.27-21.32,17.51-39,39.81-59.68,56.89-52.85,43.64-124.74,45.23-180.57,5.97-9.91-6.97-32.9-27.8-35.69-39.21-.04-.17-.13-4.1,1.11-3.37.01,1.42.78,2.43,1.73,3.39,27.57,28,55.86,47.35,96.78,49.59,52.66,2.88,89.82-19.42,126.78-53.54,60.8-56.13,117.87-118.55,177.34-176.31,7.67-7.45,17.69-14.12,23.12-23.62,1.77,1.81,13.49,12.02,13.49,12.95-2.06,2.42-4.73,4.34-6.78,6.76-.81.96-.83,2.51-1.09,2.81Z" fill="#e4e1d5"/>
      <path d="M428.05,661.65c.03,2.21-1.52,3.13-2.79,4.52-30.66,33.35-66.5,67.31-99.1,99.13-8.72,8.51-18.92,15.54-27.08,24.73-40.86,46.04-47.7,115.16-12.94,166.71,2.79,11.41,25.77,32.24,35.69,39.21,55.84,39.26,127.72,37.67,180.57-5.97,20.68-17.08,38.36-39.39,59.68-56.89,2.14-6.06,14.9-16.4,20.27-20.27,17.01-21.12,38.78-39.12,57.39-59.2,1.28-1.68,3.03-1.24,4.56-1.61,1.61-6.6,13.81-16.46,19.12-22.04,1.17-1.22,3.22-1.42,3.4-1.61.26-.27.73-1.79,2.25-3.38,1.22,3.91-2.11,3.16-2.25,3.38-4.11,6.37-6.86,8.85-12.33,14.11-3.79,3.65-6.15,8.55-10.2,9.54-1.39,5.72-.99,1.91-4.56,4.99-8.96,7.72-16.9,19.33-25.13,27.25-5.6,5.4-16.5,12.44-21.79,17.65-4.28,4.21-2.56,5.23-10.47,10.93-7.28,9.04-11.35,12.94-20.27,20.27-.24.68.5,2.76-.1,3.24-.82.66-3.36-.41-4.23.3-.41.33-.33,2.65-1.25,3.78-6.28,7.65-14.23,13-20.91,19.68-7.34,7.33-13.82,15.43-21.35,22.6-52.35,49.95-123.18,59.2-185.64,21.13-30.58-18.64-48.29-44.32-61.24-77.29-2.51-6.39-2.1-7.31-2.82-12.91-.16-1.22-1.57-2.53-1.78-3.89-7.75-50.31,5.83-92.31,40.86-127.5,40.93-41.1,82.41-80.84,124.44-120.57Z" fill="#0d0d0e"/>
      <path d="M770.44,983.77c-5.07-1.31-4.5,2.21-7.31,4.51-5.07,4.13-7.04,5.12-12.09,7.96-1.62.91-4.14,4.25-6.85,5.77-56.08,31.4-127.2,23.71-173.11-21.04-4.26-4.15-8.37-11.28.39-7.14,8.19,3.87,19.22,14.9,28.31,20.12,50.71,29.13,109.49,23.67,157.08-8.55,5.61-3.8,14.26-13.02,19.8-15.12,3.26-1.23-.13,7.02-.58,7.87-1.6,2.98-3.88,3.71-5.63,5.63Z" fill="#e4e1d5"/>
      <path d="M708.5,377.83c54.48-48.83,124.94-53.94,185.27-7.89,54.67,41.73,72.46,121.39,38.87,181.92l2.22,3.33c-1.22,2.23-4.2,1.17-5.37,1.95-.43.29-3.55,7.2-4.95,9.14-16.05,22.32-36.07,41.65-55.39,61.18-39.36,39.82-82.13,78.15-119.62,118.62-1,1.08-1.53,3.19-1.73,3.36-.83.71-2.02-1.08-2.14-1.09-.02-2.23,1.52-3.12,2.79-4.52,48.95-53.91,109.41-102.7,157.17-157.07,125.3-142.65-60-324.58-193.18-210.02-1.43,1.23-3.65.85-3.95,1.07-7.54,5.54-17.57,20.29-28.16,28.16-.26,2.71-2.8,5.32-4.48,7.35-28.61,34.5-71.46,70.19-103.64,103.03-.32-3.88,3.68-6.63,6.21-9.04,29.97-28.65,60.22-60.95,90.68-90.6,4.71-4.59,5.37-6.37,11.24-10.73.34-3.53-3.09-.95-2.25-4.5,2.44.21,4.05.19,6.26-1.07,2.98-1.69,19.67-18.58,24.15-22.59Z" fill="#0d0d0e"/>
      <path d="M575.6,612.1c8.87,7.14,11.5,11.97,18.35,18.82,41.53,41.53,87.31,82.28,127.53,125.32,8.94,9.56,10,12.86-2.84,19.17.26-.3.27-1.85,1.09-2.81,2.04-2.42,4.71-4.34,6.78-6.76,0-.94-11.73-11.14-13.49-12.95-34.03-34.85-68.68-69.2-102.46-104.21-11.8-12.23-24.53-23.48-34.94-36.57-5.59-4.5-8.34-7.35-13.52-12.39,3.61-.11,10.71,6.9,12.45,9.56.71,1.08.89,2.61,1.07,2.83Z" fill="#0d0d0e"/>
      <path d="M572.22,574.93c44.56,40.38,86.2,85.22,128.4,128.4-4.25.16-7.4-4.55-10.17-7.33-27.14-27.29-56.08-56.78-83.94-84.98-10.46-10.58-26.16-24.1-34.28-36.09-2.92.06-3.68-1.83-3.38-4.51,1.33,1.74,1.97,2.43,3.38,4.51Z" fill="#0d0d0e"/>
      <path d="M671.33,822.71c12.85-13.36,26.19-26.23,39.42-39.42.44,2.58-.86,3.43-2.21,5.11-6.4,7.97-24.34,23.89-32.69,31.52-1.41,1.29-2.31,2.72-4.52,2.79Z" fill="#0d0d0e"/>
      <path d="M740.03,743.87c-7.92-2.78-13.6-12.71-19.54-18.75-4.36-4.44-9.87-8.5-14.3-13.32-1.66-1.81-4.96-4.62-4.46-7.34,12.76,13.06,27.45,24.91,38.29,39.42Z" fill="#0d0d0e"/>
      <path d="M486.62,603.09c-8.14,8.36-23.47,26.76-32.66,31.54-1.3-6.44,7-6.18,7.74-6.9.43-.42.09-4.15,1.34-5.98,1.09-1.6,4.22-2.21,6.19-3.95,3.57-3.16,7.98-10.38,12.6-13.47,1.8-1.2,2.14-1.85,4.79-1.24Z" fill="#0d0d0e"/>
      <path d="M529.42,567.05c-.94-.75-1.98-1.45-3-2.1-1.96-.27-16.61,15.79-19.5,18.51-1.25,1.18-3.15,1.37-3.4,1.61-.8.74-2.48,2.49-3.38,3.38-1.42,1.39.71,2.45-4.51,4.51v-4.51c1.12-.27,3.94.37,4.51,0,.16-.1.02-1.64.67-2.2,1.14-.98,2.62-1.06,2.71-1.18,4.91-6.85,4.82-7.05,11.31-12.88,3.33-2.99,13.36-16.46,14.59-5.14Z" fill="#0d0d0e"/>
      <path d="M569.96,518.62c-.17.18-.11,1.84-1.06,2.82-7.42,7.59-15.51,17.14-24.84,21.95,1.22-2.88,17.26-18.1,21.8-22.71,1.29-1.31.83-2.92,4.11-2.07Z" fill="#0d0d0e"/>
      <path d="M447.2,642.51c-4.81,5.16-9.48,9.83-14.64,14.64l-.41-4.61c5.8-2.21,8.07-10.92,15.06-10.03Z" fill="#0d0d0e"/>
      <path d="M494.5,592.95c.68,4.32-3.47,5.57-5.63,7.88-.96-6.24.91-5.91,5.63-7.88Z" fill="#0d0d0e"/>
      <path d="M452.83,634.62c.77,4.05-2.74,4.8-4.51,6.76-2.69-4.13,1.55-5.33,4.51-6.76Z" fill="#0d0d0e"/>
      <path d="M539.55,577.18c-2.29-2.2-4.94-5.02-6.76-6.76,3.68-.38,7.12,2.91,6.76,6.76Z" fill="#0d0d0e"/>
      <path d="M557.57,559.16c3.87,3.92,6.26,5.42,10.14,10.14-5.27,1.06-4.65-4.13-5.97-5.37-.97-.91-3.92.32-4.17-4.77Z" fill="#0d0d0e"/>
      <path d="M544.06,544.52c1.92.83,3.18,4.29,3.38,4.51-1.62-.17-5.06-1.39-5.62-2.83-.98-2.52,1.73-1.36,2.24-1.68Z" fill="#0d0d0e"/>
      <path d="M715.25,778.79c.44,3.5.12,3.82-3.38,3.38,1.07-1.08,2.4-2.33,3.38-3.38Z" fill="#0d0d0e"/>
      <path d="M743.41,748.38c-2.25-.61-2.61,1.14-2.25-3.38.58.76,2.66,1.13,2.25,3.38Z" fill="#0d0d0e"/>
      <path d="M551.94,589.57c4.13-1.11,3.06,1.93,3.38,2.25s3.36-.75,2.25,3.38c-1.64-1.6-2.09-3.22-2.25-3.38-.23-.22-1.79-.7-3.38-2.25Z" fill="#0d0d0e"/>
      <path d="M573.34,97.39v74.9c0,8.05,8.56,12,15.33,12.83,23.4,2.85,49.99-2.54,73.65-1v64.2c-4.67-.11-9.39.17-14.07-.01-18.65-.72-39.79-3.26-58.45-.99-3.34.41-8.04,1.87-10.76,3.89-1.52,1.13-5.7,6.52-5.7,7.81v77.15h-65.32v-76.02c0-3.82-6.56-9.86-10.15-11.25-9.3-3.6-50.06-2.12-62.54-1.75-3.69.11-15.89,3.51-17.25-.67-1.55-4.74,1.12-17.34,1.06-23.48-.03-2.68-1.24-5.17-1.26-7.86-.03-4.44-.73-29.17,1.14-30.54l78.31.4c2.5-2.74,10.7-7.41,10.7-11.57v-76.02h65.32Z" fill="#399c4a"/>
      <path d="M212.6,392.72c11.79-2.69,21.02,5.84,17.81,17.81-1.46,5.46-12.83,11.96-17.37,16.41-11.68,11.47-21.98,29.71-23.63,46.2-1.06,10.62,3.16,28.33-6.32,35.35-10.1,7.48-21.72,1.34-23.1-10.71-3.27-28.61,5.55-57.87,23.69-79.93,4.43-5.39,22.98-23.78,28.92-25.13Z" fill="#fbf6eb"/>
      <path d="M782.82,965.76c1.23,1.23-1.01,3.47-2.24,2.24s1.01-3.47,2.24-2.24Z" fill="#e4e1d5"/>
      <path d="M792.4,954.49c.73.38.73.75,0,1.13v-1.13Z" fill="#e4e1d5"/>
    </g>
  </g>
</svg>