<svg xmlns="http://www.w3.org/2000/svg" viewBox="0 0 256 256" role="img" aria-label="동물약국">
  <path d="M85 102c-12.2 0-22-12.1-22-27s9.8-27 22-27 22 12.1 22 27-9.8 27-22 27Zm86 0c-12.2 0-22-12.1-22-27s9.8-27 22-27 22 12.1 22 27-9.8 27-22 27Zm-43-18c-12.2 0-22-12.1-22-27s9.8-27 22-27 22 12.1 22 27-9.8 27-22 27ZM70 149c-11 0-20-10.7-20-24s9-24 20-24 20 10.7 20 24-9 24-20 24Zm116 0c-11 0-20-10.7-20-24s9-24 20-24 20 10.7 20 24-9 24-20 24Zm-14.6 10.6c-13.6-16.6-25.3-31.2-43.4-31.2s-29.8 14.6-43.4 31.2C75.5 170.7 64 179.5 64 196c0 18.9 14.9 32 34.7 32 11.4 0 19.6-4.2 29.3-4.2s17.9 4.2 29.3 4.2c19.8 0 34.7-13.1 34.7-32 0-16.5-11.5-25.3-20.6-36.4Z" fill="#ea580c"/>
</svg>
